HIERARCHY
ROOT RootJoint
{
    OFFSET   0.000000   0.000000   0.000000
    CHANNELS 6 Xposition Yposition Zposition Xrotation Yrotation Zrotation
    JOINT lHip
    {
        OFFSET   0.100000  -0.051395   0.000000
        CHANNELS 3 Xrotation Yrotation Zrotation
        JOINT lKnee
        {
            OFFSET   0.000000  -0.410000   0.000000
            CHANNELS 3 Xrotation Yrotation Zrotation
            JOINT lAnkle
            {
                OFFSET   0.000000  -0.390000   0.000000
                CHANNELS 3 Xrotation Yrotation Zrotation
                JOINT lToeJoint
                {
                    OFFSET   0.000000  -0.050000   0.130000
                    CHANNELS 3 Xrotation Yrotation Zrotation
                    End Site
                    {
                        OFFSET   0.010000   0.002000   0.060000
                    }
                }
            }
        }
    }
    JOINT rHip
    {
        OFFSET  -0.100000  -0.051395   0.000000
        CHANNELS 3 Xrotation Yrotation Zrotation
        JOINT rKnee
        {
            OFFSET   0.000000  -0.410000   0.000000
            CHANNELS 3 Xrotation Yrotation Zrotation
            JOINT rAnkle
            {
                OFFSET   0.000000  -0.390000   0.000000
                CHANNELS 3 Xrotation Yrotation Zrotation
                JOINT rToeJoint
                {
                    OFFSET   0.000000  -0.050000   0.130000
                    CHANNELS 3 Xrotation Yrotation Zrotation
                    End Site
                    {
                        OFFSET  -0.010000   0.002000   0.060000
                    }
                }
            }
        }
    }
    JOINT pelvis_lowerback
    {
        OFFSET   0.000000   0.093605   0.000000
        CHANNELS 3 Xrotation Yrotation Zrotation
        JOINT lowerback_torso
        {
            OFFSET   0.000000   0.100000   0.000000
            CHANNELS 3 Xrotation Yrotation Zrotation
            JOINT torso_head
            {
                OFFSET   0.000000   0.282350   0.000000
                CHANNELS 3 Xrotation Yrotation Zrotation
                End Site
                {
                    OFFSET   0.000000   0.192650   0.000000
                }
            }
            JOINT lTorso_Clavicle
            {
                OFFSET   0.001000   0.157500   0.000000
                CHANNELS 3 Xrotation Yrotation Zrotation
                JOINT lShoulder
                {
                    OFFSET   0.117647   0.000000   0.000000
                    CHANNELS 3 Xrotation Yrotation Zrotation
                    JOINT lElbow
                    {
                        OFFSET   0.245000   0.000000   0.000000
                        CHANNELS 3 Xrotation Yrotation Zrotation
                        JOINT lWrist
                        {
                            OFFSET   0.240000   0.000000   0.000000
                            CHANNELS 3 Xrotation Yrotation Zrotation
                            End Site
                            {
                                OFFSET   0.116353  -0.002500   0.000000
                            }
                        }
                    }
                }
            }
            JOINT rTorso_Clavicle
            {
                OFFSET  -0.001000   0.157500   0.000000
                CHANNELS 3 Xrotation Yrotation Zrotation
                JOINT rShoulder
                {
                    OFFSET  -0.117647   0.000000   0.000000
                    CHANNELS 3 Xrotation Yrotation Zrotation
                    JOINT rElbow
                    {
                        OFFSET  -0.245000   0.000000   0.000000
                        CHANNELS 3 Xrotation Yrotation Zrotation
                        JOINT rWrist
                        {
                            OFFSET  -0.240000   0.000000   0.000000
                            CHANNELS 3 Xrotation Yrotation Zrotation
                            End Site
                            {
                                OFFSET  -0.116353  -0.002500   0.000000
                            }
                        }
                    }
                }
            }
        }
    }
}
MOTION
Frames: 7
Frame Time:   0.016667
  0.455130   0.823587   2.333975  -2.669634  -1.551757  10.036415   4.127204  23.968919   7.375386  49.953837  -4.751697   8.359714  30.693750  -4.636972  -4.697678   0.000005   0.000007  -0.000002 -25.697523 -18.594642   9.705476  17.672620  -9.399594  -8.532893   0.852503  -3.974446 -24.258299   0.000001  -0.000002  -0.000003   1.939148  -1.633211  -0.135178   7.788967  -6.498219  -0.339805  13.822127 -36.125232  13.014044   0.023238  -4.078467 -14.301425   0.528043 -22.512501 -42.773684   1.688436 -40.725955  14.152733   6.775532   0.655924  -0.641922  -1.195704  -0.305371  20.924936  21.542328  28.376984  50.992671  -0.464202  14.787222  -1.629444  -1.236258   2.025031   3.994174
  0.448945   0.828309   2.353307  -2.378044  -2.812139   9.290741  -0.445414  22.414069   8.750568  54.909127  -3.930014   8.781545  30.524463  -4.167427  -4.112464   0.000000   0.000013  -0.000004 -23.283904 -18.036618  11.251224  16.488369  -9.121234  -8.221942   0.243117  -3.681368 -23.845417  -0.000001   0.000006  -0.000001   1.912554  -1.503584  -0.029667   7.691760  -5.972415   0.066443  14.125161 -36.295576  13.753534   0.028160  -4.060484 -14.136358   0.497371 -22.281222 -43.593934   1.776268 -41.806087  14.133275   7.518724   0.782147  -1.105235  -1.188353  -0.291615  20.783028  21.045805  28.231830  50.783011  -0.494027  15.730997  -1.859654  -1.323518   1.915698   4.502173
  0.442802   0.833055   2.372504  -2.078794  -4.108654   8.562874  -4.880369  20.748139   9.911766  59.589043  -3.060197   9.098592  29.807201  -3.666807  -3.516741  -0.000004   0.000017  -0.000006 -20.891924 -17.330943  12.755342  15.220880  -8.843988  -7.881752  -0.304428  -3.403929 -23.431784  -0.000002   0.000013   0.000000   1.881238  -1.371659   0.070187   7.572216  -5.438541   0.449407  14.426314 -36.468957  14.483441   0.032400  -4.041510 -13.995473   0.554012 -22.074407 -44.355648   1.860662 -42.828320  14.100415   8.223258   0.885800  -1.560362  -1.181486  -0.290192  20.666257  20.580859  28.123871  50.514950  -0.523373  16.724893  -2.102934  -1.413533   1.856529   4.931341
  0.436891   0.837940   2.390963  -1.665008  -5.587945   7.910560  -8.982682  18.928860  10.582526  62.806362  -2.093028   9.178065  26.096997  -3.011152  -2.843976  -0.000004   0.000012  -0.000004 -18.521956 -16.090985  14.151404  13.498023  -8.548543  -7.403790  -0.503006  -3.190955 -23.028737  -0.000001   0.000007  -0.000001   1.825048  -1.226890   0.138729   7.347007  -4.857308   0.702857  14.702146 -36.673670  15.148570   0.033162  -4.017164 -13.987560   1.072652 -22.006269 -44.803211   1.920259 -43.532051  13.983928   8.710024   0.893922  -1.962302  -1.177430  -0.356502  20.687752  20.289683  28.213844  49.931473  -0.565429  17.994027  -2.415775  -1.523665   2.077171   4.928195
  0.431106   0.842860   2.409435  -1.245767  -7.169985   7.345800 -12.898998  17.099931  10.947395  65.456552  -1.085278   9.218195  22.112693  -2.347155  -2.165162  -0.000002   0.000008  -0.000002 -16.179123 -14.721660  15.398166  11.682237  -8.195837  -6.904837  -0.619732  -2.951514 -22.633765   0.000000  -0.000000  -0.000001   1.763641  -1.078089   0.186178   7.097370  -4.262328   0.872515  14.967152 -36.865158  15.776624   0.033404  -3.973530 -14.015372   1.748248 -21.968264 -45.171101   1.970069 -44.130005  13.850256   9.114431   0.873511  -2.341351  -1.175367  -0.421196  20.741447  20.032951  28.371059  49.281461  -0.605701  19.328531  -2.762352  -1.601522   2.369991   4.765193
  0.425792   0.847825   2.428713  -0.849834  -9.115252   7.152167 -16.356647  15.499825  10.643996  66.452466   0.059650   9.462392  19.634382  -1.563064  -1.734544   0.000003   0.000011  -0.000005 -13.770774 -13.369718  16.185281   9.814664  -7.485569  -6.453333  -0.631494  -2.499949 -22.273041  -0.000001   0.000003  -0.000001   1.699079  -0.919658   0.148359   6.828340  -3.634520   0.702238  15.183284 -36.961571  16.253657   0.034346  -3.829182 -14.106701   2.826121 -21.942442 -45.413054   1.997458 -44.464308  13.708882   9.284218   0.802182  -2.648668  -1.181754  -0.409293  20.833946  19.787895  28.690925  48.580697  -0.649574  20.746551  -3.220324  -1.480654   2.778097   4.152186
  0.420563   0.852798   2.448139  -0.458545 -11.126888   7.037230 -19.724798  13.967402  10.149246  67.142528   1.232489   9.735525  17.426139  -0.766168  -1.325347   0.000009   0.000017  -0.000009 -11.373446 -12.000285  16.838089   7.935205  -6.722247  -5.988821  -0.626806  -2.009697 -21.918756  -0.000002   0.000008   0.000000   1.634096  -0.759415   0.095190   6.558487  -2.999661   0.472819  15.391099 -37.039742  16.703710   0.035682  -3.666525 -14.209564   3.977047 -21.922184 -45.632481   2.020101 -44.750705  13.565674   9.410977   0.721274  -2.942787  -1.189726  -0.383476  20.933504  19.548615  29.042516  47.870077  -0.683461  22.180017  -3.701595  -1.318885   3.205357   3.455986
